<?xml version="1.0" encoding="utf-8"?>
<!-- Generator: Adobe Illustrator 24.0.0, SVG Export Plug-In . SVG Version: 6.00 Build 0)  -->
<svg version="1.1" id="Layer_1" xmlns="http://www.w3.org/2000/svg" xmlns:xlink="http://www.w3.org/1999/xlink" width="201.17" height="64.69"
	 viewBox="0 0 201.17 64.69" style="enable-background:new 0 0 201.17 64.69;" xml:space="preserve">
<g>
	<g>
		<rect x="140.93" y="4.58" width="4.69" height="31.87"/>
		<path d="M153.56,30.7c-1.75,0-3.17,1.42-3.17,3.17c0,1.75,1.42,3.17,3.17,3.17c1.75,0,3.17-1.42,3.17-3.17
			C156.72,32.11,155.3,30.7,153.56,30.7z"/>
		<path d="M165.87,25.36c0-3.8,2.28-7.06,6.7-7.06h2.79v-4.44h-2.79c-3.46,0-5.04,1.1-6.65,2.93l-0.04,0.04v-2.98h-4.62v22.58h4.62
			C165.87,36.43,165.87,26.9,165.87,25.36z"/>
		<rect x="131.16" y="13.87" width="4.69" height="22.58"/>
		<path d="M133.51,10.13c1.75,0,3.17-1.42,3.17-3.17c0-1.75-1.42-3.17-3.17-3.17c-1.75,0-3.17,1.42-3.17,3.17
			C130.34,8.71,131.76,10.13,133.51,10.13z"/>
		<path d="M121.48,16.14c-1.81-1.82-4.57-2.86-7.31-2.86c-6.55,0-11.87,5.32-11.87,11.87s5.32,11.87,11.87,11.87
			c2.74,0,5.65-1.18,7.31-3.05v2.47h4.61V13.87h-4.61L121.48,16.14z M114.32,32.31c-4.04,0-7.11-3.11-7.11-7.15s3.07-7.13,7.11-7.13
			h0c4.04,0,7.22,2.89,7.22,7.13S118.36,32.31,114.32,32.31z"/>
		<path d="M188.35,37.03c2.09,0,4.77-1.13,6.44-3.05c0.01,0.85,0,1.63,0,2.47h4.61V26.6V13.87h-4.62v12.4
			c0,3.21-2.46,6.21-6.14,6.21c-3.21,0-5.49-2.33-5.49-5.67V13.87h-4.62v13.31C178.54,33.15,181.75,37.03,188.35,37.03z"/>
		<path d="M88.76,13.29c-3.07,0-6.09,1.4-7.92,3.59c-1.67-2.22-4.11-3.59-7.39-3.59c-2.66,0-4.58,1.19-5.61,2.16v-1.58h-4.61v22.58
			h4.61v-13.2c0-2.95,2.4-5.35,5.35-5.35c2.95,0,5.35,2.4,5.35,5.35v13.2h4.61v-13.2c0-2.95,2.4-5.35,5.35-5.35
			c2.95,0,5.35,2.4,5.35,5.35v13.2h4.61v-13.2C98.46,17.18,94.53,13.29,88.76,13.29z"/>
		<path d="M149.63,46.89L149.63,46.89l-0.02,0.03v-1.75h-1.35h-1.36h-0.24v13.25h0.24v0h2.71c0-0.01,0-5.31,0-6.21
			c0-2.23,1.34-4.14,3.93-4.14h1.64v-2.9h-1.64C151.5,45.17,150.58,45.81,149.63,46.89z"/>
		<path d="M181.34,52.43L181.34,52.43c0,2.13-1.71,3.4-3.36,3.4c-1.76,0-2.99-1.27-2.99-3.1v-7.56h-2.96v7.78
			c0,3.69,2.11,5.8,5.78,5.8c1.2,0,2.6-0.61,3.54-1.52c0,0.23,0,0.46,0,0.7l0,0.49h2.95V45.17h-2.96V52.43z"/>
		<path d="M162.84,44.84c-3.84,0-6.96,3.12-6.96,6.96c0,3.84,3.12,6.96,6.96,6.96c3.84,0,6.96-3.12,6.96-6.96
			C169.8,47.96,166.68,44.84,162.84,44.84z M162.84,55.8c-2.21,0-4.01-1.8-4.01-4.01c0-2.21,1.8-4.01,4.01-4.01
			c2.21,0,4.01,1.8,4.01,4.01C166.85,54,165.05,55.8,162.84,55.8z"/>
		<path d="M194.22,44.84L194.22,44.84c-1.51,0-2.99,0.53-4.03,1.44v-1.1h-2.95v17.81l2.95-0.01v-5.75c0.99,0.93,2.53,1.52,4.03,1.52
			c3.84,0,6.96-3.12,6.96-6.96C201.17,47.96,198.05,44.84,194.22,44.84z M194.13,55.74c-2.31,0-3.98-1.66-3.98-3.94
			c0-2.28,1.67-3.93,3.98-3.93c2.24,0,3.92,1.69,3.92,3.93C198.05,54.04,196.36,55.74,194.13,55.74z"/>
		<path d="M140.77,46.27c-1.04-0.9-2.52-1.44-4.03-1.44c-3.84,0-6.96,3.12-6.96,6.96s3.12,6.96,6.96,6.96c1.5,0,3.04-0.59,4.03-1.52
			v0.27c-0.04,2.72-1.37,4.09-3.94,4.09h-0.03c-1.46,0-2.75-0.56-3.94-1.72l-0.11-0.1l-2.15,2.05l0.1,0.11
			c1.11,1.28,3.34,2.76,6.01,2.76c0.05,0,0.09,0,0.14,0c2.51-0.05,6.73-1.03,6.87-7.08V45.17h-2.95V46.27z M136.82,55.74
			c-2.23,0-3.92-1.7-3.92-3.94c0-2.24,1.69-3.93,3.92-3.93c2.31,0,3.98,1.65,3.98,3.93C140.8,54.08,139.13,55.74,136.82,55.74z"/>
	</g>
	<path d="M32.21,24.76c0,4.11-3.34,7.45-7.45,7.45c-4.11,0-7.45-3.34-7.45-7.45c0-4.11,3.34-7.45,7.45-7.45
		C28.87,17.31,32.21,20.65,32.21,24.76 M24.76,0C11.11,0,0,11.11,0,24.76c0,13.65,11.11,24.76,24.76,24.76c5,0,9.83-1.49,13.95-4.31
		l0.07-0.05l-3.34-3.88l-0.06,0.04c-3.17,2.04-6.85,3.12-10.63,3.12c-10.85,0-19.68-8.83-19.68-19.68S13.91,5.08,24.76,5.08
		s19.69,8.83,19.69,19.68c0,1.41-0.16,2.83-0.46,4.23c-0.62,2.55-2.41,3.34-3.75,3.23c-1.35-0.11-2.93-1.07-2.94-3.43v-4.04
		c0-6.91-5.62-12.52-12.52-12.52s-12.52,5.62-12.52,12.52c0,6.91,5.62,12.53,12.52,12.53c3.35,0,6.5-1.31,8.87-3.7
		c1.38,2.15,3.63,3.49,6.19,3.7c0.22,0.02,0.44,0.03,0.67,0.03c1.8,0,3.59-0.6,5.03-1.69c1.48-1.13,2.59-2.76,3.2-4.71
		c0.1-0.32,0.28-1.04,0.28-1.05L49,29.83c0.36-1.57,0.52-3.14,0.52-5.07C49.52,11.11,38.42,0,24.76,0"/>
</g>
</svg>
